<svg xmlns="http://www.w3.org/2000/svg" xmlns:xlink="http://www.w3.org/1999/xlink" width="500" zoomAndPan="magnify" viewBox="0 0 375 374.999991" height="500" preserveAspectRatio="xMidYMid meet" version="1.0"><defs><g/><clipPath id="d489a75766"><path d="M 24.414062 148 L 47 148 L 47 216 L 24.414062 216 Z M 24.414062 148 " clip-rule="nonzero"/></clipPath><clipPath id="d187b6389a"><path d="M 53 133.277344 L 92 133.277344 L 92 239 L 53 239 Z M 53 133.277344 " clip-rule="nonzero"/></clipPath><clipPath id="1b4bf61f2b"><path d="M 328 148 L 350.746094 148 L 350.746094 216 L 328 216 Z M 328 148 " clip-rule="nonzero"/></clipPath><clipPath id="4dd96f0d9b"><path d="M 283 133.277344 L 321 133.277344 L 321 239 L 283 239 Z M 283 133.277344 " clip-rule="nonzero"/></clipPath></defs><g clip-path="url(#d489a75766)"><path fill="#000000" d="M 31.386719 215.734375 L 46.386719 215.734375 L 46.386719 148.503906 L 31.386719 148.503906 C 23.886719 148.503906 23.886719 153.386719 23.886719 155.972656 L 23.886719 208.265625 C 23.886719 210.847656 23.886719 215.734375 31.386719 215.734375 Z M 31.386719 215.734375 " fill-opacity="1" fill-rule="nonzero"/></g><g clip-path="url(#d187b6389a)"><path fill="#000000" d="M 53.886719 152.238281 L 53.886719 230.675781 C 53.886719 233.257812 53.886719 238.144531 61.386719 238.144531 L 84.488281 238.144531 C 91.390625 238.144531 91.390625 233.257812 91.390625 230.675781 L 91.390625 141.03125 C 91.390625 138.449219 91.390625 133.5625 84.488281 133.5625 L 61.386719 133.5625 C 53.886719 133.5625 53.886719 138.449219 53.886719 141.03125 Z M 53.886719 152.238281 " fill-opacity="1" fill-rule="nonzero"/></g><g clip-path="url(#1b4bf61f2b)"><path fill="#000000" d="M 328.246094 215.734375 L 343.246094 215.734375 C 350.746094 215.734375 350.746094 210.847656 350.746094 208.265625 L 350.746094 155.972656 C 350.746094 153.386719 350.746094 148.503906 343.246094 148.503906 L 328.246094 148.503906 Z M 328.246094 215.734375 " fill-opacity="1" fill-rule="nonzero"/></g><g clip-path="url(#4dd96f0d9b)"><path fill="#000000" d="M 283.242188 198.925781 L 283.242188 230.675781 C 283.242188 233.257812 283.242188 238.144531 290.742188 238.144531 L 313.246094 238.144531 C 320.746094 238.144531 320.746094 233.257812 320.746094 230.675781 L 320.746094 141.03125 C 320.746094 138.449219 320.746094 133.5625 313.246094 133.5625 L 290.742188 133.5625 C 283.242188 133.5625 283.242188 138.449219 283.242188 141.03125 Z M 283.242188 198.925781 " fill-opacity="1" fill-rule="nonzero"/></g><g fill="#000000" fill-opacity="1"><g transform="translate(102.018478, 207.91814)"><g><path d="M 16.21875 -38.875 C 19.75 -38.875 22.660156 -38.445312 24.953125 -37.59375 C 27.242188 -36.738281 28.945312 -35.453125 30.0625 -33.734375 C 31.1875 -32.015625 31.75 -29.847656 31.75 -27.234375 C 31.75 -25.453125 31.410156 -23.894531 30.734375 -22.5625 C 30.054688 -21.238281 29.164062 -20.113281 28.0625 -19.1875 C 26.96875 -18.269531 25.785156 -17.519531 24.515625 -16.9375 L 35.953125 0 L 26.796875 0 L 17.515625 -14.921875 L 13.140625 -14.921875 L 13.140625 0 L 4.890625 0 L 4.890625 -38.875 Z M 15.640625 -32.125 L 13.140625 -32.125 L 13.140625 -21.609375 L 15.796875 -21.609375 C 18.523438 -21.609375 20.476562 -22.066406 21.65625 -22.984375 C 22.832031 -23.898438 23.421875 -25.242188 23.421875 -27.015625 C 23.421875 -28.859375 22.785156 -30.171875 21.515625 -30.953125 C 20.253906 -31.734375 18.296875 -32.125 15.640625 -32.125 Z M 15.640625 -32.125 "/></g></g></g><g fill="#000000" fill-opacity="1"><g transform="translate(137.960077, 207.91814)"><g><path d="M 19.65625 -21.828125 L 35.0625 -21.828125 L 35.0625 -1.671875 C 33.03125 -1.003906 30.914062 -0.46875 28.71875 -0.0625 C 26.519531 0.332031 24.03125 0.53125 21.25 0.53125 C 17.382812 0.53125 14.101562 -0.226562 11.40625 -1.75 C 8.707031 -3.28125 6.65625 -5.53125 5.25 -8.5 C 3.851562 -11.476562 3.15625 -15.140625 3.15625 -19.484375 C 3.15625 -23.566406 3.941406 -27.09375 5.515625 -30.0625 C 7.085938 -33.039062 9.382812 -35.347656 12.40625 -36.984375 C 15.425781 -38.617188 19.117188 -39.4375 23.484375 -39.4375 C 25.535156 -39.4375 27.5625 -39.210938 29.5625 -38.765625 C 31.570312 -38.316406 33.390625 -37.738281 35.015625 -37.03125 L 32.28125 -30.4375 C 31.09375 -31.039062 29.734375 -31.546875 28.203125 -31.953125 C 26.679688 -32.367188 25.085938 -32.578125 23.421875 -32.578125 C 21.023438 -32.578125 18.945312 -32.023438 17.1875 -30.921875 C 15.425781 -29.828125 14.0625 -28.289062 13.09375 -26.3125 C 12.125 -24.332031 11.640625 -22.003906 11.640625 -19.328125 C 11.640625 -16.796875 11.984375 -14.550781 12.671875 -12.59375 C 13.367188 -10.632812 14.460938 -9.097656 15.953125 -7.984375 C 17.441406 -6.878906 19.382812 -6.328125 21.78125 -6.328125 C 22.945312 -6.328125 23.929688 -6.382812 24.734375 -6.5 C 25.546875 -6.613281 26.304688 -6.734375 27.015625 -6.859375 L 27.015625 -14.96875 L 19.65625 -14.96875 Z M 19.65625 -21.828125 "/></g></g></g><g fill="#000000" fill-opacity="1"><g transform="translate(177.38419, 207.91814)"><g><path d="M 21.34375 0 L 11.984375 -30.5 L 11.75 -30.5 C 11.789062 -29.769531 11.847656 -28.671875 11.921875 -27.203125 C 12.003906 -25.742188 12.078125 -24.191406 12.140625 -22.546875 C 12.210938 -20.898438 12.25 -19.410156 12.25 -18.078125 L 12.25 0 L 4.890625 0 L 4.890625 -38.875 L 16.109375 -38.875 L 25.3125 -9.140625 L 25.46875 -9.140625 L 35.234375 -38.875 L 46.453125 -38.875 L 46.453125 0 L 38.765625 0 L 38.765625 -18.40625 C 38.765625 -19.625 38.785156 -21.03125 38.828125 -22.625 C 38.878906 -24.21875 38.9375 -25.738281 39 -27.1875 C 39.070312 -28.632812 39.128906 -29.71875 39.171875 -30.4375 L 38.921875 -30.4375 L 28.90625 0 Z M 21.34375 0 "/></g></g></g><g fill="#000000" fill-opacity="1"><g transform="translate(228.717945, 207.91814)"><g><path d="M 39.375 0 L 28.90625 0 L 11.984375 -29.40625 L 11.75 -29.40625 C 11.820312 -28.1875 11.882812 -26.953125 11.9375 -25.703125 C 11.988281 -24.460938 12.039062 -23.226562 12.09375 -22 C 12.144531 -20.769531 12.195312 -19.535156 12.25 -18.296875 L 12.25 0 L 4.890625 0 L 4.890625 -38.875 L 15.28125 -38.875 L 32.171875 -9.765625 L 32.359375 -9.765625 C 32.328125 -10.960938 32.28125 -12.15625 32.21875 -13.34375 C 32.164062 -14.53125 32.117188 -15.71875 32.078125 -16.90625 C 32.035156 -18.09375 31.992188 -19.28125 31.953125 -20.46875 L 31.953125 -38.875 L 39.375 -38.875 Z M 39.375 0 "/></g></g></g></svg>