<svg xmlns="http://www.w3.org/2000/svg" xmlns:xlink="http://www.w3.org/1999/xlink" width="500" zoomAndPan="magnify" viewBox="0 0 375 374.999991" height="500" preserveAspectRatio="xMidYMid meet" version="1.0"><defs><clipPath id="e0f9bfc8cb"><path d="M 15.675781 145 L 51 145 L 51 249 L 15.675781 249 Z M 15.675781 145 " clip-rule="nonzero"/></clipPath><clipPath id="f2a6b314fb"><path d="M 324 145 L 359.175781 145 L 359.175781 249 L 324 249 Z M 324 145 " clip-rule="nonzero"/></clipPath></defs><g clip-path="url(#e0f9bfc8cb)"><path fill="#000000" d="M 50.023438 145.894531 L 27.125 145.894531 C 15.675781 145.894531 15.675781 153.382812 15.675781 157.347656 L 15.675781 237.515625 C 15.675781 241.476562 15.675781 248.96875 27.125 248.96875 L 50.023438 248.96875 Z M 50.023438 145.894531 " fill-opacity="1" fill-rule="nonzero"/></g><path fill="#000000" d="M 130.175781 168.800781 L 244.675781 168.800781 L 244.675781 214.609375 L 130.175781 214.609375 Z M 130.175781 168.800781 " fill-opacity="1" fill-rule="nonzero"/><g clip-path="url(#f2a6b314fb)"><path fill="#000000" d="M 347.726562 145.894531 L 324.824219 145.894531 L 324.824219 248.96875 L 347.726562 248.96875 C 359.175781 248.96875 359.175781 241.476562 359.175781 237.515625 L 359.175781 157.347656 C 359.175781 153.382812 359.175781 145.894531 347.726562 145.894531 Z M 347.726562 145.894531 " fill-opacity="1" fill-rule="nonzero"/></g><path fill="#000000" d="M 118.726562 171.664062 L 118.726562 122.988281 C 118.726562 119.027344 118.726562 111.535156 107.273438 111.535156 L 72.925781 111.535156 C 61.476562 111.535156 61.476562 119.027344 61.476562 122.988281 L 61.476562 260.421875 C 61.476562 264.382812 61.476562 271.871094 72.925781 271.871094 L 107.273438 271.871094 C 118.726562 271.871094 118.726562 264.382812 118.726562 260.421875 Z M 118.726562 171.664062 " fill-opacity="1" fill-rule="nonzero"/><path fill="#000000" d="M 313.375 243.242188 L 313.375 122.988281 C 313.375 119.027344 313.375 111.535156 301.925781 111.535156 L 266.660156 111.535156 C 256.125 111.535156 256.125 119.027344 256.125 122.988281 L 256.125 260.421875 C 256.125 264.382812 256.125 271.871094 266.660156 271.871094 L 301.925781 271.871094 C 313.375 271.871094 313.375 264.382812 313.375 260.421875 Z M 313.375 243.242188 " fill-opacity="1" fill-rule="nonzero"/></svg>