<svg xmlns="http://www.w3.org/2000/svg" xmlns:xlink="http://www.w3.org/1999/xlink" width="500" zoomAndPan="magnify" viewBox="0 0 375 374.999991" height="500" preserveAspectRatio="xMidYMid meet" version="1.0"><defs><g/><clipPath id="8d0a20896e"><path d="M 27.304688 149 L 49 149 L 49 216 L 27.304688 216 Z M 27.304688 149 " clip-rule="nonzero"/></clipPath><clipPath id="5c432c15cd"><path d="M 56 134.238281 L 94 134.238281 L 94 238 L 56 238 Z M 56 134.238281 " clip-rule="nonzero"/></clipPath><clipPath id="1b345bf188"><path d="M 325 149 L 347.851562 149 L 347.851562 216 L 325 216 Z M 325 149 " clip-rule="nonzero"/></clipPath><clipPath id="ac65049288"><path d="M 281 134.238281 L 319 134.238281 L 319 238 L 281 238 Z M 281 134.238281 " clip-rule="nonzero"/></clipPath></defs><g clip-path="url(#8d0a20896e)"><path fill="#ffffff" d="M 34.152344 215.234375 L 48.890625 215.234375 L 48.890625 149.195312 L 34.152344 149.195312 C 26.785156 149.195312 26.785156 153.992188 26.785156 156.53125 L 26.785156 207.894531 C 26.785156 210.433594 26.785156 215.234375 34.152344 215.234375 Z M 34.152344 215.234375 " fill-opacity="1" fill-rule="nonzero"/></g><g clip-path="url(#5c432c15cd)"><path fill="#ffffff" d="M 56.257812 152.863281 L 56.257812 229.910156 C 56.257812 232.449219 56.257812 237.246094 63.625 237.246094 L 86.316406 237.246094 C 93.09375 237.246094 93.09375 232.449219 93.09375 229.910156 L 93.09375 141.855469 C 93.09375 139.316406 93.09375 134.519531 86.316406 134.519531 L 63.625 134.519531 C 56.257812 134.519531 56.257812 139.316406 56.257812 141.855469 Z M 56.257812 152.863281 " fill-opacity="1" fill-rule="nonzero"/></g><g clip-path="url(#1b345bf188)"><path fill="#ffffff" d="M 325.75 215.234375 L 340.484375 215.234375 C 347.851562 215.234375 347.851562 210.433594 347.851562 207.894531 L 347.851562 156.53125 C 347.851562 153.992188 347.851562 149.195312 340.484375 149.195312 L 325.75 149.195312 Z M 325.75 215.234375 " fill-opacity="1" fill-rule="nonzero"/></g><g clip-path="url(#ac65049288)"><path fill="#ffffff" d="M 281.542969 198.722656 L 281.542969 229.910156 C 281.542969 232.449219 281.542969 237.246094 288.914062 237.246094 L 311.015625 237.246094 C 318.382812 237.246094 318.382812 232.449219 318.382812 229.910156 L 318.382812 141.855469 C 318.382812 139.316406 318.382812 134.519531 311.015625 134.519531 L 288.914062 134.519531 C 281.542969 134.519531 281.542969 139.316406 281.542969 141.855469 Z M 281.542969 198.722656 " fill-opacity="1" fill-rule="nonzero"/></g><g fill="#ffffff" fill-opacity="1"><g transform="translate(103.533996, 207.556146)"><g><path d="M 15.9375 -38.1875 C 19.394531 -38.1875 22.25 -37.765625 24.5 -36.921875 C 26.757812 -36.085938 28.4375 -34.828125 29.53125 -33.140625 C 30.632812 -31.453125 31.1875 -29.320312 31.1875 -26.75 C 31.1875 -25 30.851562 -23.472656 30.1875 -22.171875 C 29.53125 -20.867188 28.660156 -19.765625 27.578125 -18.859375 C 26.492188 -17.953125 25.328125 -17.210938 24.078125 -16.640625 L 35.3125 0 L 26.328125 0 L 17.203125 -14.65625 L 12.90625 -14.65625 L 12.90625 0 L 4.8125 0 L 4.8125 -38.1875 Z M 15.359375 -31.546875 L 12.90625 -31.546875 L 12.90625 -21.234375 L 15.515625 -21.234375 C 18.191406 -21.234375 20.109375 -21.679688 21.265625 -22.578125 C 22.421875 -23.472656 23 -24.789062 23 -26.53125 C 23 -28.34375 22.375 -29.628906 21.125 -30.390625 C 19.882812 -31.160156 17.960938 -31.546875 15.359375 -31.546875 Z M 15.359375 -31.546875 "/></g></g></g><g fill="#ffffff" fill-opacity="1"><g transform="translate(138.838385, 207.556146)"><g><path d="M 19.296875 -21.4375 L 34.453125 -21.4375 L 34.453125 -1.640625 C 32.441406 -0.984375 30.359375 -0.457031 28.203125 -0.0625 C 26.046875 0.320312 23.597656 0.515625 20.859375 0.515625 C 17.066406 0.515625 13.847656 -0.226562 11.203125 -1.71875 C 8.554688 -3.21875 6.546875 -5.429688 5.171875 -8.359375 C 3.796875 -11.285156 3.109375 -14.878906 3.109375 -19.140625 C 3.109375 -23.148438 3.878906 -26.613281 5.421875 -29.53125 C 6.960938 -32.457031 9.21875 -34.722656 12.1875 -36.328125 C 15.15625 -37.929688 18.78125 -38.734375 23.0625 -38.734375 C 25.082031 -38.734375 27.070312 -38.515625 29.03125 -38.078125 C 31 -37.640625 32.785156 -37.070312 34.390625 -36.375 L 31.703125 -29.90625 C 30.535156 -30.5 29.203125 -30.992188 27.703125 -31.390625 C 26.210938 -31.785156 24.644531 -31.984375 23 -31.984375 C 20.65625 -31.984375 18.613281 -31.441406 16.875 -30.359375 C 15.144531 -29.285156 13.804688 -27.773438 12.859375 -25.828125 C 11.910156 -23.890625 11.4375 -21.609375 11.4375 -18.984375 C 11.4375 -16.492188 11.773438 -14.285156 12.453125 -12.359375 C 13.128906 -10.441406 14.195312 -8.9375 15.65625 -7.84375 C 17.125 -6.757812 19.035156 -6.21875 21.390625 -6.21875 C 22.535156 -6.21875 23.503906 -6.273438 24.296875 -6.390625 C 25.085938 -6.503906 25.832031 -6.617188 26.53125 -6.734375 L 26.53125 -14.703125 L 19.296875 -14.703125 Z M 19.296875 -21.4375 "/></g></g></g><g fill="#ffffff" fill-opacity="1"><g transform="translate(177.563546, 207.556146)"><g><path d="M 20.96875 0 L 11.78125 -29.953125 L 11.546875 -29.953125 C 11.578125 -29.242188 11.628906 -28.171875 11.703125 -26.734375 C 11.785156 -25.296875 11.863281 -23.765625 11.9375 -22.140625 C 12.007812 -20.523438 12.046875 -19.066406 12.046875 -17.765625 L 12.046875 0 L 4.8125 0 L 4.8125 -38.1875 L 15.828125 -38.1875 L 24.859375 -8.984375 L 25.015625 -8.984375 L 34.609375 -38.1875 L 45.625 -38.1875 L 45.625 0 L 38.078125 0 L 38.078125 -18.078125 C 38.078125 -19.273438 38.097656 -20.65625 38.140625 -22.21875 C 38.179688 -23.789062 38.238281 -25.285156 38.3125 -26.703125 C 38.382812 -28.117188 38.4375 -29.1875 38.46875 -29.90625 L 38.234375 -29.90625 L 28.390625 0 Z M 20.96875 0 "/></g></g></g><g fill="#ffffff" fill-opacity="1"><g transform="translate(227.987202, 207.556146)"><g><path d="M 38.671875 0 L 28.390625 0 L 11.78125 -28.890625 L 11.546875 -28.890625 C 11.609375 -27.679688 11.664062 -26.46875 11.71875 -25.25 C 11.769531 -24.03125 11.820312 -22.816406 11.875 -21.609375 C 11.925781 -20.398438 11.984375 -19.1875 12.046875 -17.96875 L 12.046875 0 L 4.8125 0 L 4.8125 -38.1875 L 15.015625 -38.1875 L 31.59375 -9.578125 L 31.78125 -9.578125 C 31.75 -10.765625 31.707031 -11.941406 31.65625 -13.109375 C 31.601562 -14.273438 31.550781 -15.441406 31.5 -16.609375 C 31.457031 -17.773438 31.421875 -18.941406 31.390625 -20.109375 L 31.390625 -38.1875 L 38.671875 -38.1875 Z M 38.671875 0 "/></g></g></g></svg>